<svg xmlns="http://www.w3.org/2000/svg" viewBox="0 0 128 128" role="img" aria-label="Gosh">
  <rect width="128" height="128" fill="#000"/>
  <g fill="#39ff14" filter="url(#glow)">
    <path d="M64 18c-20 0-36 16-36 36v34c0 2 1.2 3.2 2.8 3.2 1.2 0 2.2-.6 3.4-1.6 1.4-1.2 3.2-2.8 5.4-2.8s4 1.6 5.4 2.8c1.2 1 2.2 1.6 3.4 1.6s2.2-.6 3.4-1.6c1.4-1.2 3.2-2.8 5.4-2.8s4 1.6 5.4 2.8c1.2 1 2.2 1.6 3.4 1.6s2.2-.6 3.4-1.6c1.4-1.2 3.2-2.8 5.4-2.8s4 1.6 5.4 2.8c1.2 1 2.2 1.6 3.4 1.6 1.6 0 2.8-1.2 2.8-3.2V54c0-20-16-36-36-36z"/>
    <rect x="46" y="48" width="8" height="18" rx="3" fill="#000"/>
    <rect x="74" y="48" width="8" height="18" rx="3" fill="#000"/>
  </g>
  <defs>
    <filter id="glow" x="-30%" y="-30%" width="160%" height="160%">
      <feGaussianBlur stdDeviation="2.5" result="b"/>
      <feMerge>
        <feMergeNode in="b"/>
        <feMergeNode in="SourceGraphic"/>
      </feMerge>
    </filter>
  </defs>
</svg>
